<svg width="40" height="30" viewBox="0 0 40 30" fill="none" xmlns="http://www.w3.org/2000/svg">
<path d="M31.25 16.6668H8.75C8.05 16.6668 7.5 15.9335 7.5 15.0002C7.5 14.0668 8.05 13.3335 8.75 13.3335H31.25C31.95 13.3335 32.5 14.0668 32.5 15.0002C32.5 15.9335 31.95 16.6668 31.25 16.6668Z" fill="black"/>
<path d="M15 28.3332C14.8361 28.3358 14.6735 28.2927 14.5228 28.2066C14.3721 28.1205 14.2366 27.9933 14.125 27.8332L5.375 16.1665C4.875 15.4998 4.875 14.4665 5.375 13.7998L14.125 2.1665C14.625 1.49984 15.4 1.49984 15.9 2.1665C16.4 2.83317 16.4 3.8665 15.9 4.53317L8.025 15.0332L15.9 25.5332C16.4 26.1998 16.4 27.2332 15.9 27.8998C15.65 28.2332 15.325 28.3998 15.025 28.3998L15 28.3332Z" fill="black"/>
</svg>
