<svg width="30" height="30" viewBox="0 0 30 30" fill="none" xmlns="http://www.w3.org/2000/svg">
<path fill-rule="evenodd" clip-rule="evenodd" d="M15 22.25C20.0425 22.25 24.6075 19.4375 27.06 15C24.6075 10.5625 20.0425 7.75 15 7.75C9.9575 7.75 5.3925 10.5625 2.94 15C5.3925 19.4375 9.9575 22.25 15 22.25ZM15 6.25C21.01 6.25 26.215 9.81 28.75 15C26.215 20.19 21.01 23.75 15 23.75C8.99 23.75 3.785 20.19 1.25 15C3.785 9.81 8.99 6.25 15 6.25ZM15 18.5C15.9283 18.5 16.8185 18.1313 17.4749 17.4749C18.1313 16.8185 18.5 15.9283 18.5 15C18.5 14.0717 18.1313 13.1815 17.4749 12.5251C16.8185 11.8687 15.9283 11.5 15 11.5C14.0717 11.5 13.1815 11.8687 12.5251 12.5251C11.8687 13.1815 11.5 14.0717 11.5 15C11.5 15.9283 11.8687 16.8185 12.5251 17.4749C13.1815 18.1313 14.0717 18.5 15 18.5ZM15 20C13.6739 20 12.4021 19.4732 11.4645 18.5355C10.5268 17.5979 10 16.3261 10 15C10 13.6739 10.5268 12.4021 11.4645 11.4645C12.4021 10.5268 13.6739 10 15 10C16.3261 10 17.5979 10.5268 18.5355 11.4645C19.4732 12.4021 20 13.6739 20 15C20 16.3261 19.4732 17.5979 18.5355 18.5355C17.5979 19.4732 16.3261 20 15 20Z" fill="black"/>
</svg>
